<svg width="32" height="32" viewBox="0 0 32 32" fill="none" xmlns="http://www.w3.org/2000/svg">
<path d="M26.8131 5L17.4375 11.9373L19.181 7.84892L26.8131 5Z" fill="#E17726" stroke="#E17726" stroke-width="0.25" stroke-linecap="round" stroke-linejoin="round"/>
<path d="M5.1875 5L14.4796 12.002L12.8197 7.84891L5.1875 5Z" fill="#E27625" stroke="#E27625" stroke-width="0.25" stroke-linecap="round" stroke-linejoin="round"/>
<path d="M23.437 21.0854L20.9424 24.8963L26.284 26.3671L27.8141 21.1688L23.437 21.0854Z" fill="#E27625" stroke="#E27625" stroke-width="0.25" stroke-linecap="round" stroke-linejoin="round"/>
<path d="M4.19434 21.1688L5.7152 26.3671L11.0475 24.8963L8.56219 21.0854L4.19434 21.1688Z" fill="#E27625" stroke="#E27625" stroke-width="0.25" stroke-linecap="round" stroke-linejoin="round"/>
<path d="M10.7601 14.6473L9.27637 16.8857L14.5623 17.1262L14.3861 11.4376L10.7601 14.6473Z" fill="#E27625" stroke="#E27625" stroke-width="0.25" stroke-linecap="round" stroke-linejoin="round"/>
<path d="M21.2396 14.6473L17.5581 11.3729L17.4375 17.1263L22.7234 16.8858L21.2396 14.6473Z" fill="#E27625" stroke="#E27625" stroke-width="0.25" stroke-linecap="round" stroke-linejoin="round"/>
<path d="M11.0479 24.8961L14.2472 23.3514L11.493 21.2054L11.0479 24.8961Z" fill="#E27625" stroke="#E27625" stroke-width="0.25" stroke-linecap="round" stroke-linejoin="round"/>
<path d="M17.7529 23.3514L20.943 24.8961L20.5071 21.2054L17.7529 23.3514Z" fill="#E27625" stroke="#E27625" stroke-width="0.25" stroke-linecap="round" stroke-linejoin="round"/>
<path d="M20.943 24.8962L17.7529 23.3516L18.0126 25.4235L17.9847 26.3022L20.943 24.8962Z" fill="#D5BFB2" stroke="#D5BFB2" stroke-width="0.25" stroke-linecap="round" stroke-linejoin="round"/>
<path d="M11.0479 24.8962L14.0154 26.3022L13.9969 25.4235L14.2472 23.3516L11.0479 24.8962Z" fill="#D5BFB2" stroke="#D5BFB2" stroke-width="0.25" stroke-linecap="round" stroke-linejoin="round"/>
<path d="M14.0712 19.8363L11.4189 19.0593L13.2922 18.1991L14.0712 19.8363Z" fill="#233447" stroke="#233447" stroke-width="0.25" stroke-linecap="round" stroke-linejoin="round"/>
<path d="M17.9287 19.8363L18.7077 18.1991L20.5903 19.0593L17.9287 19.8363Z" fill="#233447" stroke="#233447" stroke-width="0.25" stroke-linecap="round" stroke-linejoin="round"/>
<path d="M11.0478 24.8963L11.5115 21.0854L8.5625 21.1688L11.0478 24.8963Z" fill="#CC6228" stroke="#CC6228" stroke-width="0.25" stroke-linecap="round" stroke-linejoin="round"/>
<path d="M20.4883 21.0854L20.9427 24.8963L23.4373 21.1688L20.4883 21.0854Z" fill="#CC6228" stroke="#CC6228" stroke-width="0.25" stroke-linecap="round" stroke-linejoin="round"/>
<path d="M22.7234 16.8856L17.4375 17.1261L17.929 19.8363L18.708 18.1991L20.5905 19.0593L22.7234 16.8856Z" fill="#CC6228" stroke="#CC6228" stroke-width="0.25" stroke-linecap="round" stroke-linejoin="round"/>
<path d="M11.4186 19.0593L13.2918 18.1991L14.0708 19.8363L14.5623 17.1261L9.27637 16.8856L11.4186 19.0593Z" fill="#CC6228" stroke="#CC6228" stroke-width="0.25" stroke-linecap="round" stroke-linejoin="round"/>
<path d="M9.27637 16.8856L11.4928 21.2053L11.4185 19.0593L9.27637 16.8856Z" fill="#E27525" stroke="#E27525" stroke-width="0.25" stroke-linecap="round" stroke-linejoin="round"/>
<path d="M20.5903 19.0593L20.5068 21.2053L22.7232 16.8856L20.5903 19.0593Z" fill="#E27525" stroke="#E27525" stroke-width="0.25" stroke-linecap="round" stroke-linejoin="round"/>
<path d="M14.5628 17.1261L14.0713 19.8363L14.6926 23.0367L14.8317 18.8188L14.5628 17.1261Z" fill="#E27525" stroke="#E27525" stroke-width="0.25" stroke-linecap="round" stroke-linejoin="round"/>
<path d="M17.4374 17.1261L17.1777 18.8096L17.3076 23.0367L17.9289 19.8363L17.4374 17.1261Z" fill="#E27525" stroke="#E27525" stroke-width="0.25" stroke-linecap="round" stroke-linejoin="round"/>
<path d="M17.9289 19.8365L17.3076 23.0368L17.7528 23.3513L20.507 21.2054L20.5905 19.0594L17.9289 19.8365Z" fill="#F5841F" stroke="#F5841F" stroke-width="0.25" stroke-linecap="round" stroke-linejoin="round"/>
<path d="M11.4189 19.0594L11.4932 21.2054L14.2474 23.3513L14.6925 23.0368L14.0712 19.8365L11.4189 19.0594Z" fill="#F5841F" stroke="#F5841F" stroke-width="0.25" stroke-linecap="round" stroke-linejoin="round"/>
<path d="M17.9845 26.3018L18.0123 25.4231L17.7712 25.2196H14.2287L13.9969 25.4231L14.0154 26.3018L11.0479 24.8959L12.0865 25.7468L14.1916 27.1991H17.799L19.9134 25.7468L20.9427 24.8959L17.9845 26.3018Z" fill="#C0AC9D" stroke="#C0AC9D" stroke-width="0.25" stroke-linecap="round" stroke-linejoin="round"/>
<path d="M17.7529 23.3517L17.3077 23.0372H14.6926L14.2475 23.3517L13.9971 25.4237L14.2289 25.2201H17.7714L18.0126 25.4237L17.7529 23.3517Z" fill="#161616" stroke="#161616" stroke-width="0.25" stroke-linecap="round" stroke-linejoin="round"/>
<path d="M27.2119 12.3905L28.0002 8.56114L26.8132 5L17.7529 11.7061L21.2397 14.6474L26.164 16.0812L27.249 14.814L26.7761 14.4717L27.5272 13.7873L26.9523 13.3433L27.7035 12.7698L27.2119 12.3905Z" fill="#763E1A" stroke="#763E1A" stroke-width="0.25" stroke-linecap="round" stroke-linejoin="round"/>
<path d="M4 8.56114L4.79753 12.3905L4.28748 12.7698L5.04791 13.3433L4.47295 13.7873L5.22411 14.4717L4.75116 14.814L5.83617 16.0812L10.7605 14.6474L14.2473 11.7061L5.18702 5L4 8.56114Z" fill="#763E1A" stroke="#763E1A" stroke-width="0.25" stroke-linecap="round" stroke-linejoin="round"/>
<path d="M26.1637 16.081L21.2394 14.6473L22.7232 16.8858L20.5068 21.2054L23.4373 21.1684H27.8144L26.1637 16.081Z" fill="#F5841F" stroke="#F5841F" stroke-width="0.25" stroke-linecap="round" stroke-linejoin="round"/>
<path d="M10.76 14.6473L5.83576 16.081L4.19434 21.1684H8.56219L11.4926 21.2054L9.27626 16.8858L10.76 14.6473Z" fill="#F5841F" stroke="#F5841F" stroke-width="0.25" stroke-linecap="round" stroke-linejoin="round"/>
<path d="M17.4376 17.1266L17.7529 11.7062L19.181 7.84912H12.8193L14.2474 11.7062L14.5627 17.1266L14.6833 18.8285L14.6926 23.0372H17.3077L17.317 18.8285L17.4376 17.1266Z" fill="#F5841F" stroke="#F5841F" stroke-width="0.25" stroke-linecap="round" stroke-linejoin="round"/>
</svg>
