<svg width="24" height="15" viewBox="0 0 24 15" fill="none" xmlns="http://www.w3.org/2000/svg">
<g clip-path="url(#clip0_214_1191)">
<path d="M4.91499 2.90051C8.82789 -0.930542 15.1719 -0.930542 19.0848 2.90051L19.5558 3.36159C19.7514 3.55314 19.7514 3.86371 19.5558 4.05526L17.9448 5.6325C17.847 5.72828 17.6884 5.72828 17.5906 5.6325L16.9425 4.99801C14.2128 2.32537 9.78703 2.32537 7.0573 4.99801L6.36329 5.6775C6.26547 5.77327 6.10687 5.77327 6.00904 5.6775L4.39811 4.10026C4.20246 3.9087 4.20246 3.59813 4.39811 3.40658L4.91499 2.90051ZM22.4164 6.16241L23.8502 7.56616C24.0458 7.75772 24.0458 8.06828 23.8502 8.25984L17.3853 14.5895C17.1897 14.7811 16.8725 14.7811 16.6768 14.5895C16.6768 14.5895 16.6768 14.5895 16.6768 14.5895L12.0885 10.0972C12.0396 10.0493 11.9603 10.0493 11.9114 10.0972C11.9114 10.0972 11.9114 10.0972 11.9114 10.0972L7.32315 14.5895C7.12751 14.7811 6.81031 14.7811 6.61466 14.5895C6.61466 14.5895 6.61466 14.5895 6.61466 14.5895L0.149663 8.25975C-0.0459815 8.0682 -0.0459815 7.75763 0.149663 7.56608L1.5834 6.16233C1.77905 5.97078 2.09625 5.97078 2.29189 6.16233L6.88029 10.6548C6.9292 10.7026 7.0085 10.7026 7.05742 10.6548C7.05742 10.6548 7.05742 10.6548 7.05742 10.6548L11.6456 6.16233C11.8412 5.97077 12.1584 5.97077 12.3541 6.16232C12.3541 6.16232 12.3541 6.16232 12.3541 6.16232L16.9425 10.6548C16.9914 10.7026 17.0707 10.7026 17.1196 10.6548L21.7079 6.16241C21.9036 5.97086 22.2208 5.97086 22.4164 6.16241Z" fill="#3B99FC"/>
</g>
<defs>
<clipPath id="clip0_214_1191">
<rect width="24" height="14.8" fill="white"/>
</clipPath>
</defs>
</svg>
