<svg width="7" height="12" viewBox="0 0 7 12" fill="none" xmlns="http://www.w3.org/2000/svg">
<path d="M6.33301 1.33332C6.33301 1.53332 6.26634 1.73332 6.13301 1.86665L1.79967 5.53332C1.73301 5.66665 1.66634 5.73332 1.66634 5.93332C1.66634 5.99998 1.73301 6.19998 1.79967 6.26665L6.06634 10.1333C6.33301 10.4 6.33301 10.8 6.13301 11.0666C5.86634 11.3333 5.46634 11.3333 5.19967 11.1333L0.933007 7.26665C0.533007 6.93332 0.333008 6.39998 0.333008 5.86665C0.333008 5.33332 0.599674 4.86665 0.999674 4.46665L5.26634 0.799982C5.53301 0.533315 5.93301 0.599982 6.19967 0.866648C6.26634 0.999983 6.33301 1.19998 6.33301 1.33332Z" fill="black"/>
</svg>
