<svg width="12" height="7" viewBox="0 0 12 7" fill="none" xmlns="http://www.w3.org/2000/svg">
<path d="M1.33332 0.666747C1.53332 0.666747 1.73332 0.733414 1.86665 0.866747L5.53332 5.20008C5.66665 5.26675 5.73332 5.33341 5.93332 5.33341C5.99998 5.33341 6.19998 5.26675 6.26665 5.20008L10.1333 0.933414C10.4 0.666748 10.8 0.666748 11.0667 0.866748C11.3333 1.13341 11.3333 1.53341 11.1333 1.80008L7.26665 6.06675C6.93332 6.46675 6.39998 6.66675 5.86665 6.66675C5.33332 6.66675 4.86665 6.40008 4.46665 6.00008L0.799983 1.73341C0.533316 1.46675 0.599983 1.06675 0.866649 0.800081C0.999983 0.733414 1.19998 0.666747 1.33332 0.666747Z" fill="#999999"/>
</svg>
