<svg width="7" height="12" viewBox="0 0 7 12" fill="none" xmlns="http://www.w3.org/2000/svg">
<path d="M0.666992 10.6667C0.666992 10.4667 0.733659 10.2667 0.866992 10.1334L5.20033 6.46668C5.26699 6.33335 5.33366 6.26668 5.33366 6.06668C5.33366 6.00002 5.26699 5.80002 5.20033 5.73335L0.933659 1.86668C0.666992 1.60002 0.666992 1.20002 0.866992 0.93335C1.13366 0.666684 1.53366 0.666684 1.80033 0.866684L6.06699 4.73335C6.46699 5.06668 6.66699 5.60002 6.66699 6.13335C6.66699 6.66668 6.40033 7.13335 6.00033 7.53335L1.73366 11.2C1.46699 11.4667 1.06699 11.4 0.800326 11.1334C0.733659 11 0.666992 10.8 0.666992 10.6667Z" fill="black"/>
</svg>
