<?xml version="1.0" encoding="UTF-8"?>
<svg width="26px" height="26px" viewBox="0 0 26 26" version="1.1" xmlns="http://www.w3.org/2000/svg" xmlns:xlink="http://www.w3.org/1999/xlink">
    <title>充值备份</title>
    <g id="页面-1" stroke="none" stroke-width="1" fill="none" fill-rule="evenodd">
        <g id="充值备份">
            <rect id="矩形备份-178" fill="#77B0D0" x="0" y="0" width="26" height="26" rx="4"></rect>
            <path d="M26,16 L26,22 C26,24.209139 24.209139,26 22,26 L16,26 L16,26 C18.5641026,25.2307692 20.7435897,23.9487179 22.5384615,22.1538462 C24.3333333,20.3589744 25.4871795,18.3076923 26,16 Z" id="矩形" fill="#FD8EBA"></path>
            <path d="M10.7066751,10.5438957 C11.8736956,10.5443832 12.7497835,10.551473 13.3575793,10.6545636 L13.2241711,10.6340416 C13.2838875,10.6423541 13.3412973,10.6514329 13.3964186,10.6613485 C13.4175997,10.6651569 13.438737,10.6691471 13.4595278,10.6732685 C13.489825,10.6792795 13.5188642,10.6854507 13.5471966,10.6919032 C13.6748792,10.7209585 13.7886025,10.7558791 13.8881536,10.7976856 C13.8932782,10.7998344 13.8990426,10.8022954 13.9047588,10.80478 C13.9335786,10.8173259 13.9605083,10.8301295 13.9862789,10.8435325 C13.9943817,10.8477379 14.0032005,10.8524602 14.0118799,10.857256 C14.0300784,10.8673283 14.0470052,10.8773101 14.0633664,10.8875999 C14.0775094,10.8964861 14.0915713,10.9058423 14.1051908,10.9154468 C14.1191248,10.9252771 14.1324621,10.9352613 14.1453471,10.9455068 C14.1540354,10.9524137 14.1625895,10.959501 14.170935,10.9667112 C14.1839973,10.9780005 14.1964539,10.9894978 14.2084092,11.0012995 C14.2190503,11.0118062 14.229242,11.0224959 14.2390422,11.0334298 C14.2516409,11.047484 14.2636253,11.0619846 14.2749617,11.0769027 C14.2809287,11.0847595 14.2866034,11.0925698 14.292106,11.1004929 C14.3579795,11.1952658 14.3992553,11.3064645 14.4164876,11.4366454 C14.4184631,11.4515988 14.4200991,11.4665451 14.4214294,11.4817375 C14.4230685,11.5003751 14.4242622,11.5197938 14.4249781,11.5396067 C14.4255402,11.5552492 14.425805,11.5708993 14.4257816,11.5867915 C14.4257476,11.6102564 14.4250837,11.6342814 14.4237929,11.6588476 C14.4232396,11.6694316 14.4225406,11.6805163 14.4217165,11.6917102 C14.4199112,11.7161712 14.4175477,11.7408266 14.4146057,11.7660005 C14.4044969,11.8528557 14.3872544,11.946884 14.3630944,12.0476666 L14.3532192,12.0877193 C14.3286974,12.1845465 14.2949479,12.2802351 14.2519708,12.3747851 C14.1299566,12.6434331 13.9329438,12.9033583 13.6611612,13.1540574 L13.5824342,13.224599 C13.365094,13.4138709 13.1978092,13.6538406 13.0953961,13.9232329 C12.7902322,14.7259501 13.113845,15.6133293 13.8227587,16.0432339 C13.8295826,16.0480144 13.83673,16.052247 13.8439156,16.0564344 L13.8227587,16.0432339 C13.8622678,16.0671932 13.9029736,16.0897317 13.944834,16.1107553 L13.8439156,16.0564344 C13.8866897,16.0813606 13.9308181,16.1046806 13.9762508,16.1262832 L14.1105376,16.1836056 L16.6830739,17.1615902 C16.837026,17.2201172 16.9864977,17.2879812 17.1307221,17.3645957 C17.1470879,17.3732593 17.1635178,17.382144 17.1798789,17.3911435 C17.2146055,17.4102457 17.2489625,17.429812 17.2829949,17.4498802 C17.7425677,17.720719 18.1458698,18.0865172 18.4631045,18.524941 L18.4631045,18.524941 L18.6540774,18.7888687 C18.7483032,18.9190905 18.7990295,19.0757273 18.7990295,19.2364638 C18.7990295,19.6581532 18.4571827,20 18.0354933,20 L18.0354933,20 L11.9327589,20 C9.00642704,20 6.42801109,18.0768312 5.59377724,15.2719298 L5.59377724,15.2719298 L4.78530813,12.5536559 C4.74227006,12.4089512 4.72041087,12.2587773 4.72041087,12.107808 C4.72041087,11.2440632 5.42061442,10.5438596 6.28435926,10.5438596 L6.28435926,10.5438596 Z M16.6991418,9 C19.0744402,9 21,10.9008261 21,13.245614 C21,15.0427657 19.8688523,16.5791171 18.2710297,17.1987307 C17.8825539,16.8787751 17.4412603,16.6226311 16.9641009,16.4412324 L14.3915645,15.4632478 C13.8790414,15.2684051 13.6235658,14.7003087 13.8209437,14.1943689 C13.8786819,14.0463682 13.9718853,13.9143812 14.0925777,13.8097029 C14.6209462,13.3514379 14.968712,12.84012 15.1118456,12.2749398 C15.3807008,11.2133328 15.0698979,10.4229914 14.128323,10.0608517 C14.0654416,10.0366669 14.0011526,10.0144383 13.9344773,9.99401601 C14.6811804,9.37369642 15.6459525,9 16.6991418,9 Z M17.5803217,10.5438596 L16.5999362,10.5438596 L16.5999362,11.107704 C16.3976344,11.1546911 16.2264559,11.2251716 16.0708392,11.3250191 C15.7362632,11.5423341 15.5728656,11.8653699 15.5728656,12.253013 C15.5728656,12.904958 15.8062907,13.1281465 16.366511,13.3043478 L17.0667864,13.5216629 C17.4636092,13.6450038 17.5491984,13.7154844 17.5491984,14.1148741 C17.5491984,14.2852021 17.518075,14.3967963 17.4402667,14.4672769 C17.3702391,14.5377574 17.2613074,14.5729977 17.090129,14.5729977 C16.9189505,14.5729977 16.8100188,14.5260107 16.7477721,14.4731503 C16.6466212,14.3850496 16.6310595,14.2617086 16.6310595,14.0913806 L15.5261805,14.0913806 C15.5261805,14.5201373 15.6195506,14.8138063 15.8918799,15.0193745 C16.0552775,15.1427155 16.2964835,15.2425629 16.5999362,15.28955 L16.5999362,15.9473684 L17.5803217,15.9473684 L17.5803217,15.2836766 C17.8837744,15.2308162 18.1327612,15.1368421 18.2961588,15.0135011 C18.5840498,14.8020595 18.6540774,14.5083905 18.6540774,14.0855072 C18.6540774,13.3278413 18.4517756,13.0870328 17.7515002,12.8755912 L17.0590056,12.6641495 C16.7399912,12.5643021 16.6777445,12.4879481 16.6777445,12.2236461 C16.6777445,12.082685 16.7010871,11.9945843 16.7711146,11.9241037 C16.8333613,11.8594966 16.9345122,11.8125095 17.090129,11.8125095 C17.2535265,11.8125095 17.3468966,11.8536232 17.4091433,11.9182304 C17.5025134,12.0122044 17.5025134,12.1472921 17.5025134,12.2941266 L18.6073923,12.2941266 C18.6073923,11.8712433 18.4828989,11.5364607 18.1794463,11.3250191 C18.0238295,11.2192982 17.8293086,11.1370709 17.5803217,11.0959573 L17.5803217,10.5438596 Z" id="形状结合" fill-opacity="0.8" fill="#FFFFFF"></path>
        </g>
    </g>
</svg>