<svg width="12" height="12" viewBox="0 0 12 12" fill="none" xmlns="http://www.w3.org/2000/svg">
<path d="M1.70031 0.655407C1.4931 0.448197 1.15715 0.448198 0.949941 0.655407L0.657116 0.948232C0.449907 1.15544 0.449907 1.49139 0.657116 1.6986L4.95851 6L0.657115 10.3014C0.449909 10.5086 0.449905 10.8446 0.657117 11.0518L0.949941 11.3446C1.15715 11.5518 1.4931 11.5518 1.70031 11.3446L5.99997 7.04493L10.2996 11.3446C10.5068 11.5518 10.8428 11.5518 11.05 11.3446L11.3428 11.0518C11.55 10.8446 11.55 10.5086 11.3428 10.3014L7.04143 6L11.3428 1.6986C11.55 1.49139 11.55 1.15544 11.3428 0.948232L11.05 0.655407C10.8428 0.448198 10.5068 0.448198 10.2996 0.655406L5.99997 4.95507L1.70031 0.655407Z" fill="black"/>
</svg>
