<?xml version="1.0" encoding="UTF-8"?>
<svg width="26px" height="26px" viewBox="0 0 26 26" version="1.1" xmlns="http://www.w3.org/2000/svg" xmlns:xlink="http://www.w3.org/1999/xlink">
    <title>总量备份</title>
    <g id="页面-1" stroke="none" stroke-width="1" fill="none" fill-rule="evenodd">
        <g id="总量备份">
            <rect id="矩形" fill="#FD8EBA" x="0" y="0" width="26" height="26" rx="4"></rect>
            <path d="M26,16 L26,22 C26,24.209139 24.209139,26 22,26 L16,26 L16,26 C18.5641026,25.2307692 20.7435897,23.9487179 22.5384615,22.1538462 C24.3333333,20.3589744 25.4871795,18.3076923 26,16 Z" id="矩形" fill="#77B0D0"></path>
            <path d="M15.7819263,6.27390898 L16.9472334,6.27520028 C18.6040877,6.27520028 19.9472334,7.61834603 19.9472334,9.27520028 L19.9472334,17.2388366 C19.9472334,18.8956909 18.6040877,20.2388366 16.9472334,20.2388366 L8.94723342,20.2388366 C7.29037917,20.2388366 5.94723342,18.8956909 5.94723342,17.2388366 L5.94723342,9.27520028 C5.94723342,7.61834603 7.29037917,6.27520028 8.94723342,6.27520028 L10.1125406,6.27390898 C9.73241151,6.51999809 9.38644818,6.81414453 9.08330321,7.14771813 L8.8062829,7.14792755 C7.7519211,7.14792755 6.88811778,7.96380534 6.81176864,8.99866521 L6.8062829,9.14792755 L6.8062829,12.1479276 C6.8062829,13.2022893 7.62216069,14.0660927 8.65702055,14.1424418 L8.8062829,14.1479276 L10.2857616,14.1481762 L10.2562334,14.1248366 L15.6381788,14.1257105 C15.6283868,14.1332392 15.6185622,14.1407279 15.6087053,14.1481762 L17.0881839,14.1479276 C18.1425457,14.1479276 19.0063491,13.3320498 19.0826982,12.2971899 L19.0881839,12.1479276 L19.0881839,9.14792755 C19.0881839,8.04335805 18.1927534,7.14792755 17.0881839,7.14792755 L16.8111636,7.14771813 C16.5080187,6.81414453 16.1620553,6.51999809 15.7819263,6.27390898 Z M10.2685184,7.14259307 L10.2982334,7.11983664 L10.2692334,7.14183664 L10.3802334,7.06083664 L10.2982334,7.11983664 L10.3779067,7.06172094 L10.3779067,7.06172094 L10.4232334,7.02983664 L10.4352334,7.02083664 L10.4582267,7.00556211 L10.4582267,7.00556211 L10.4432334,7.01483664 L10.4352334,7.02083664 L10.4332334,7.02283664 L10.4432334,7.01483664 L10.4970459,6.97935611 L10.4970459,6.97935611 C10.5468945,6.94608429 10.5976209,6.91370125 10.6490412,6.88233902 C10.6764781,6.86560819 10.7037621,6.84937136 10.7312346,6.833422 C10.7857106,6.80179271 10.8410778,6.77121495 10.8971576,6.74180612 C10.9022612,6.73913043 10.906932,6.73669233 10.9116078,6.73426235 L10.9022334,6.73783664 L11.0004143,6.68937737 C11.0350926,6.67233966 11.0700279,6.65574293 11.1052128,6.63959454 C11.1256049,6.63023822 11.1456128,6.62123876 11.1656994,6.61238443 C11.226603,6.58552986 11.2886737,6.55983778 11.3514404,6.5355371 C11.375994,6.52603185 11.4005202,6.51678867 11.4251494,6.50775834 C11.4752486,6.48938734 11.5259298,6.47184646 11.5770212,6.4552107 L11.6470483,6.43305629 L11.6470483,6.43305629 C11.7008824,6.41652195 11.7549822,6.40103376 11.8094971,6.38656074 L11.8957134,6.36460454 L11.8957134,6.36460454 C11.9695825,6.34659303 12.0438985,6.33049054 12.1188868,6.31628119 C12.1268371,6.31477406 12.135128,6.31322702 12.1434271,6.31170314 C12.2190564,6.29782202 12.2950283,6.28590817 12.3716175,6.27595369 C12.3764347,6.27532734 12.3814784,6.27468036 12.3865248,6.27404189 C12.5735238,6.25059506 12.7590019,6.23883664 12.9472334,6.23883664 C13.135465,6.23883664 13.320943,6.25059506 13.5029695,6.27341563 L13.507942,6.27404189 L13.5142334,6.27483664 L13.7172334,6.30583664 L13.7759125,6.31634421 L13.7759125,6.31634421 C13.8505684,6.33049054 13.9248844,6.34659303 13.9984763,6.36453693 L14.0851436,6.3866069 L14.0851436,6.3866069 C14.1394846,6.40103376 14.1935844,6.41652195 14.2472476,6.43300379 L14.3175397,6.45524134 L14.3175397,6.45524134 L14.4694702,6.50781435 L14.4694702,6.50781435 C14.4939467,6.51678867 14.5184728,6.52603185 14.5428936,6.53548566 C14.6057931,6.55983778 14.6678638,6.58552986 14.7292005,6.61257536 C14.748854,6.62123876 14.7688619,6.63023822 14.7887898,6.63938149 C14.8547916,6.66967357 14.9194632,6.70130808 14.9832213,6.73445063 L14.9899143,6.73793694 L14.9932334,6.73983664 L15.0498718,6.76982535 C15.0719752,6.78180053 15.0939645,6.79395865 15.1158377,6.80629767 L15.1632323,6.833422 C15.1907047,6.84937136 15.2179888,6.86560819 15.2450802,6.88212837 C15.2968459,6.91370125 15.3475723,6.94608429 15.3975764,6.97945987 L15.4361578,7.00550588 L15.4361578,7.00550588 C16.5970374,7.7981753 17.3586918,9.12979005 17.3586918,10.6388366 C17.3586918,11.5617753 17.073788,12.4183439 16.5869142,13.125824 L13.7736861,13.1261522 C14.0465199,13.0577323 14.2722187,12.9590692 14.4316862,12.8374453 C14.7860394,12.5744888 14.8722334,12.2092714 14.8722334,11.6833584 C14.8722334,10.7410975 14.6232284,10.4416192 13.7612881,10.1786627 L12.908925,9.91570621 C12.5162633,9.79153229 12.4396464,9.69657577 12.4396464,9.36788012 C12.4396464,9.19257577 12.4683777,9.08301055 12.5545717,8.99535838 C12.6311886,8.91501055 12.7556911,8.85657577 12.9472334,8.85657577 C13.1483528,8.85657577 13.2632782,8.90770621 13.3398951,8.98805403 C13.4548205,9.1049236 13.4548205,9.2729236 13.4548205,9.45553229 L14.8147707,9.45553229 C14.8147707,8.92961925 14.6615369,8.51327142 14.2880294,8.2503149 C14.0964872,8.11883664 13.8570593,8.01657577 13.5505916,7.96544534 L13.5505916,7.27883664 L12.3438752,7.27883664 L12.3438752,7.98005403 C12.0948702,8.03848881 11.8841737,8.12614099 11.6926314,8.2503149 C11.2808155,8.52057577 11.0796961,8.9223149 11.0796961,9.40440186 C11.0796961,10.2151845 11.3670095,10.4927497 12.0565618,10.7118801 L12.9185021,10.982141 C13.4069349,11.1355323 13.5122832,11.2231845 13.5122832,11.7198801 C13.5122832,11.9317062 13.4739747,12.0704888 13.3782036,12.158141 C13.2920095,12.2457932 13.1579299,12.2896192 12.9472334,12.2896192 C12.7365369,12.2896192 12.6024573,12.2311845 12.5258404,12.1654453 C12.4013379,12.0558801 12.3821837,11.9024888 12.3821837,11.6906627 L11.0222334,11.6906627 C11.0222334,12.2238801 11.1371588,12.5890975 11.4723578,12.8447497 C11.6243013,12.9606351 11.8309075,13.0598444 12.083917,13.126629 L9.30755259,13.125824 C8.82067889,12.4183439 8.53577509,11.5617753 8.53577509,10.6388366 C8.53577509,9.2974619 9.13757603,8.09628021 10.0865746,7.28923355 L10.2622334,7.14683664 L10.2685184,7.14259307 Z" id="形状结合" fill-opacity="0.8" fill="#FFFFFF"></path>
            <g id="椭圆形" transform="translate(7.958333, 4.958333)"></g>
        </g>
    </g>
</svg>