<svg width="24" height="24" viewBox="0 0 24 24" fill="none" xmlns="http://www.w3.org/2000/svg">
<path d="M12 0C18.6291 0 24 5.37086 24 12C24 18.6291 18.6291 24 12 24C5.37086 24 0 18.6291 0 12C0 5.37086 5.37086 0 12 0ZM13.6383 7.5L13.4845 7.67118L13.6455 7.72412C15.2812 8.27788 16.0425 9.02963 16.0425 9.02963C13.6677 7.69718 10.8349 7.58296 8.36839 8.72019C7.98911 8.90234 7.76365 9.02963 7.76365 9.02963L7.77298 9.02057C7.86955 8.92828 8.71913 8.15106 10.465 7.62948L10.3617 7.5L10.1767 7.51297C9.19281 7.60081 8.25338 7.98615 7.47498 8.62363C6.53666 10.5597 6.03235 12.6922 6 14.8606C6 14.8606 6.86392 16.4122 9.13328 16.489C9.13328 16.489 9.13855 16.4823 9.14837 16.4699L9.22067 16.3782C9.35124 16.2126 9.60514 15.89 9.8223 15.6112L9.69025 15.5676C8.52764 15.1622 8.05872 14.4058 8.02527 14.3498L8.07252 14.383C8.20574 14.4748 8.38252 14.5772 8.43348 14.6072L8.44636 14.6149C10.4222 15.732 12.7753 15.8657 14.8562 14.9792C15.272 14.8159 15.6686 14.6039 16.0383 14.3471C16.0383 14.3471 15.5241 15.2249 14.1777 15.6222C14.4853 16.0282 14.8562 16.5 14.8562 16.5C17.1255 16.4232 18 14.8716 18 14.8716V14.8606L17.9922 14.5511C17.9186 12.4895 17.4187 10.4675 16.525 8.62363C15.698 7.9463 14.6891 7.55363 13.6383 7.5ZM14.2484 10.5C14.4559 10.5078 14.6517 10.5978 14.7926 10.75C14.9335 10.9023 15.0079 11.1043 14.9993 11.3115C14.966 11.716 14.6165 12.0207 14.2107 11.9989C13.8049 11.9772 13.49 11.6369 13.5002 11.2312C13.5104 10.8254 13.842 10.5014 14.2484 10.5ZM9.74841 10.5C9.95586 10.5078 10.1517 10.5978 10.2926 10.75C10.4335 10.9023 10.5079 11.1043 10.4993 11.3115C10.466 11.716 10.1165 12.0207 9.7107 11.9989C9.30488 11.9772 8.99003 11.6369 9.00024 11.2312C9.01045 10.8254 9.34201 10.5014 9.74841 10.5Z" fill="#C5C5C5"/>
</svg>
