<svg width="24" height="24" viewBox="0 0 24 24" fill="none" xmlns="http://www.w3.org/2000/svg">
<path d="M12 0C18.6291 0 24 5.37086 24 12C24 18.6291 18.6291 24 12 24C5.37086 24 0 18.6291 0 12C0 5.37086 5.37086 0 12 0ZM17.4545 9.81818L12.1306 12.7509C12.0494 12.7963 11.9506 12.7963 11.8694 12.7509L6.55045 9.82078L6.54545 15.2619C6.54545 15.8679 7.0365 16.3636 7.63624 16.3636H16.3638C16.9635 16.3636 17.4545 15.8679 17.4545 15.2619V9.81818ZM16.3633 7.63636H7.63174C7.03422 7.63636 6.55046 8.14901 6.54545 8.77997L12.0006 12L17.4545 8.77725C17.447 8.14765 16.9595 7.63636 16.3633 7.63636Z" fill="#C5C5C5"/>
</svg>
