<svg t="1671867059067" class="icon" viewBox="0 0 1024 1024" version="1.1" xmlns="http://www.w3.org/2000/svg" p-id="3719" xmlns:xlink="http://www.w3.org/1999/xlink" width="200" height="200"><path d="M511.218328 360.817477c-82.867747 0-150.340615 67.472868-150.340616 150.340616s67.472868 150.340615 150.340616 150.340615S661.558943 594.02584 661.558943 511.158093s-67.472868-150.340615-150.340615-150.340616z m0 240.544985c-49.732676 0-90.204369-40.471694-90.204369-90.204369s40.471694-90.204369 90.204369-90.20437 90.204369 40.471694 90.204369 90.20437-40.471694 90.204369-90.204369 90.204369z m507.549918-31.631666c2.225041-19.303735 3.608175-38.787879 3.608174-58.572703s-1.383134-39.268969-3.608174-58.572704l-155.632605-46.786a359.253935 359.253935 0 0 0-28.504581-69.096547l76.914259-142.943857a520.779892 520.779892 0 0 0-82.98802-82.98802L685.613442 187.745361a365.267559 365.267559 0 0 0-69.156683-28.504581L569.791032 3.608175c-19.243599-2.225041-38.727743-3.608175-58.572704-3.608175s-39.329105 1.383134-58.572704 3.608175L405.979897 159.24078a353.120038 353.120038 0 0 0-69.156683 28.564717l-142.943857-76.974395a513.022316 513.022316 0 0 0-82.927884 82.988019L187.865732 336.642706a363.643881 363.643881 0 0 0-28.504581 69.156683L3.66841 452.585389c-2.225041 19.243599-3.608175 38.727743-3.608175 58.572704s1.383134 39.329105 3.608175 58.572703l155.632605 46.665727c7.21635 24.234907 16.717876 47.447498 28.504581 69.21682l-76.914259 142.883721c24.415316 30.729622 52.258398 58.572704 82.98802 82.988019L336.823214 834.570825c21.769321 11.786704 44.981912 21.288231 69.156683 28.50458l46.665727 155.632605c19.303735 2.225041 38.787879 3.608175 58.572704 3.608175s39.329105-1.383134 58.572704-3.608175l46.665727-155.632605c24.174771-7.21635 47.387362-16.717876 69.156683-28.50458l142.883721 76.914258c30.729622-24.475452 58.572704-52.318534 82.988019-83.048156l-76.854122-142.883721c11.786704-21.769321 21.288231-44.981912 28.504581-69.156683l155.632605-46.665727z m-203.982147-1.623678l-9.260982 31.150575c-6.013625 20.265915-14.011745 39.689922-23.813954 57.67066l-15.394879 28.564717 15.334743 28.564717 57.249706 106.441156a442.482499 442.482499 0 0 1-18.401691 18.401691L685.613442 766.195913l-28.564717 15.394879a306.694856 306.694856 0 0 1-57.730796 23.813953l-31.150576 9.260982-9.321118 31.150576-34.818887 116.183227a461.365281 461.365281 0 0 1-25.618041 0l-34.818886-116.183227-9.321118-31.150576-31.150576-9.260982a300.681231 300.681231 0 0 1-57.67066-23.813953l-28.564717-15.394879-135.005873 72.584449a482.713648 482.713648 0 0 1-18.401691-18.401692l72.644586-134.945736-15.394879-28.564717a307.41649 307.41649 0 0 1-23.813954-57.730796l-9.200846-31.09044-147.273667-44.140004a306.213766 306.213766 0 0 1 0-25.557905l147.213531-44.140005 9.260982-31.150575c6.013625-20.265915 14.011745-39.689922 23.813954-57.67066l15.394879-28.564717L183.475786 201.817242a529.198966 529.198966 0 0 1 18.341555-18.401691l135.126145 72.764858 28.624854-15.575288c17.860465-9.742072 37.224336-17.740193 57.490251-23.753817l31.150575-9.260982 9.321119-31.150576 34.818886-116.183227L511.218328 60.136246l12.80902 0.180409 34.818887 116.183228 9.321118 31.150575 31.150576 9.260982c20.145642 6.013625 39.629786 14.011745 57.730796 23.813953l28.564717 15.334743 134.945736-72.644585c6.25417 5.953488 12.448203 12.087385 18.401692 18.401691l-57.309843 106.441156-15.334743 28.564717 15.455015 28.564717c9.802208 18.040874 17.740193 37.404745 23.753818 57.550387l9.260982 31.150576 31.150575 9.321118 116.183228 34.939159 0.120272 12.809021c0 4.209537-0.060136 8.479211-0.240545 12.80902l-147.21353 44.140005z" p-id="3720"></path></svg>