<svg width="20" height="20" viewBox="0 0 20 20" fill="none" xmlns="http://www.w3.org/2000/svg">
<path fill-rule="evenodd" clip-rule="evenodd" d="M10 17.9C14.363 17.9 17.9 14.363 17.9 10C17.9 5.63695 14.363 2.1 10 2.1C5.63695 2.1 2.1 5.63695 2.1 10C2.1 14.363 5.63695 17.9 10 17.9ZM10 19.5C15.2467 19.5 19.5 15.2467 19.5 10C19.5 4.75329 15.2467 0.5 10 0.5C4.75329 0.5 0.5 4.75329 0.5 10C0.5 15.2467 4.75329 19.5 10 19.5Z" fill="#E3493F"/>
<path fill-rule="evenodd" clip-rule="evenodd" d="M9.99997 8.86862L11.9799 6.88872C12.1361 6.73251 12.3893 6.73251 12.5456 6.88872L13.1112 7.4544C13.2674 7.61061 13.2674 7.86388 13.1112 8.02009L11.1313 9.99999L13.1112 11.9799C13.2674 12.1361 13.2674 12.3894 13.1112 12.5456L12.5456 13.1113C12.3893 13.2675 12.1361 13.2675 11.9799 13.1113L9.99997 11.1314L8.02007 13.1113C7.86386 13.2675 7.61059 13.2675 7.45438 13.1113L6.8887 12.5456C6.73249 12.3894 6.73249 12.1361 6.8887 11.9799L8.8686 9.99999L6.8887 8.02009C6.73249 7.86388 6.73249 7.61061 6.8887 7.4544L7.45438 6.88872C7.61059 6.73251 7.86386 6.73251 8.02007 6.88872L9.99997 8.86862Z" fill="#E3493F"/>
</svg>
