<svg width="22" height="22" viewBox="0 0 22 22" fill="none" xmlns="http://www.w3.org/2000/svg">
<path d="M11 20.1667C13.5313 20.1667 15.823 19.1407 17.4818 17.4818C19.1407 15.823 20.1667 13.5313 20.1667 11C20.1667 8.46876 19.1407 6.17709 17.4818 4.51823C15.823 2.85939 13.5313 1.83337 11 1.83337C8.46873 1.83337 6.17706 2.85939 4.5182 4.51823C2.85936 6.17709 1.83334 8.46876 1.83334 11C1.83334 13.5313 2.85936 15.823 4.5182 17.4818C6.17706 19.1407 8.46873 20.1667 11 20.1667Z" stroke="#666666" stroke-width="1.5" stroke-linejoin="round"/>
<path fill-rule="evenodd" clip-rule="evenodd" d="M11 5.04163C11.6328 5.04163 12.1458 5.55464 12.1458 6.18746C12.1458 6.82028 11.6328 7.33329 11 7.33329C10.3672 7.33329 9.85416 6.82028 9.85416 6.18746C9.85416 5.55464 10.3672 5.04163 11 5.04163Z" fill="#666666"/>
<path d="M11.2292 15.5833V9.16663H10.7708H10.3125" stroke="#666666" stroke-width="1.5" stroke-linecap="square" stroke-linejoin="round"/>
<path d="M9.625 15.5834H12.8333" stroke="#666666" stroke-width="1.5" stroke-linecap="square" stroke-linejoin="round"/>
</svg>
