<svg width="20" height="20" viewBox="0 0 20 20" fill="none" xmlns="http://www.w3.org/2000/svg">
<path d="M13.8535 8.5C13.9706 8.38284 13.9706 8.19289 13.8535 8.07574L13.1464 7.36863C13.0292 7.25147 12.8393 7.25147 12.7221 7.36863L9.14133 10.9494C9.06323 11.0275 8.93659 11.0275 8.85849 10.9494L7.2063 9.2972C7.08914 9.18004 6.89919 9.18004 6.78203 9.2972L6.07493 10.0043C5.95777 10.1215 5.95777 10.3114 6.07493 10.4286L8.78778 13.1414C8.90494 13.2586 9.09488 13.2586 9.21204 13.1414L13.8535 8.5Z" fill="#05C28C"/>
<path fill-rule="evenodd" clip-rule="evenodd" d="M19.5 10C19.5 15.2467 15.2467 19.5 10 19.5C4.75329 19.5 0.5 15.2467 0.5 10C0.5 4.75329 4.75329 0.5 10 0.5C15.2467 0.5 19.5 4.75329 19.5 10ZM17.9 10C17.9 14.363 14.363 17.9 10 17.9C5.63695 17.9 2.1 14.363 2.1 10C2.1 5.63695 5.63695 2.1 10 2.1C14.363 2.1 17.9 5.63695 17.9 10Z" fill="#05C28C"/>
</svg>
